<mxfile host="app.diagrams.net" modified="2024-04-11T01:51:39.842Z" agent="Mozilla/5.0 (X11; Linux x86_64) AppleWebKit/537.36 (KHTML, like Gecko) Chrome/123.0.0.0 Safari/537.36" etag="ho2VWhpUcmD5fXhA4LdJ" version="23.1.5" type="github">
  <diagram name="Page-1" id="2YBvvXClWsGukQMizWep">
    <mxGraphModel dx="2284" dy="905" grid="1" gridSize="10" guides="1" tooltips="1" connect="1" arrows="1" fold="1" page="1" pageScale="1" pageWidth="850" pageHeight="1100" math="0" shadow="0">
      <root>
        <mxCell id="0" />
        <mxCell id="1" parent="0" />
        <mxCell id="ltLlW4g9V4cl66PpBt7y-4" value="" style="edgeStyle=orthogonalEdgeStyle;rounded=0;orthogonalLoop=1;jettySize=auto;html=1;" parent="1" source="ltLlW4g9V4cl66PpBt7y-1" target="ltLlW4g9V4cl66PpBt7y-3" edge="1">
          <mxGeometry relative="1" as="geometry" />
        </mxCell>
        <mxCell id="ltLlW4g9V4cl66PpBt7y-5" value="" style="edgeStyle=orthogonalEdgeStyle;rounded=0;orthogonalLoop=1;jettySize=auto;html=1;" parent="1" source="ltLlW4g9V4cl66PpBt7y-1" target="ltLlW4g9V4cl66PpBt7y-3" edge="1">
          <mxGeometry relative="1" as="geometry" />
        </mxCell>
        <mxCell id="ltLlW4g9V4cl66PpBt7y-7" value="" style="edgeStyle=orthogonalEdgeStyle;rounded=0;orthogonalLoop=1;jettySize=auto;html=1;" parent="1" source="ltLlW4g9V4cl66PpBt7y-1" target="ltLlW4g9V4cl66PpBt7y-6" edge="1">
          <mxGeometry relative="1" as="geometry">
            <Array as="points">
              <mxPoint x="80" y="280" />
              <mxPoint x="220" y="280" />
            </Array>
          </mxGeometry>
        </mxCell>
        <mxCell id="ltLlW4g9V4cl66PpBt7y-9" value="" style="edgeStyle=orthogonalEdgeStyle;rounded=0;orthogonalLoop=1;jettySize=auto;html=1;" parent="1" source="ltLlW4g9V4cl66PpBt7y-1" target="ltLlW4g9V4cl66PpBt7y-8" edge="1">
          <mxGeometry relative="1" as="geometry">
            <Array as="points">
              <mxPoint x="80" y="280" />
              <mxPoint x="360" y="280" />
            </Array>
          </mxGeometry>
        </mxCell>
        <mxCell id="ltLlW4g9V4cl66PpBt7y-11" value="" style="edgeStyle=orthogonalEdgeStyle;rounded=0;orthogonalLoop=1;jettySize=auto;html=1;" parent="1" source="ltLlW4g9V4cl66PpBt7y-1" target="ltLlW4g9V4cl66PpBt7y-10" edge="1">
          <mxGeometry relative="1" as="geometry">
            <Array as="points">
              <mxPoint x="80" y="280" />
              <mxPoint x="500" y="280" />
            </Array>
          </mxGeometry>
        </mxCell>
        <mxCell id="ltLlW4g9V4cl66PpBt7y-13" value="" style="edgeStyle=orthogonalEdgeStyle;rounded=0;orthogonalLoop=1;jettySize=auto;html=1;" parent="1" source="ltLlW4g9V4cl66PpBt7y-1" target="ltLlW4g9V4cl66PpBt7y-12" edge="1">
          <mxGeometry relative="1" as="geometry">
            <Array as="points">
              <mxPoint x="80" y="280" />
              <mxPoint x="640" y="280" />
            </Array>
          </mxGeometry>
        </mxCell>
        <mxCell id="ltLlW4g9V4cl66PpBt7y-15" value="" style="edgeStyle=orthogonalEdgeStyle;rounded=0;orthogonalLoop=1;jettySize=auto;html=1;" parent="1" source="ltLlW4g9V4cl66PpBt7y-1" target="ltLlW4g9V4cl66PpBt7y-14" edge="1">
          <mxGeometry relative="1" as="geometry">
            <Array as="points">
              <mxPoint x="80" y="280" />
              <mxPoint x="780" y="280" />
            </Array>
          </mxGeometry>
        </mxCell>
        <mxCell id="ltLlW4g9V4cl66PpBt7y-17" value="" style="edgeStyle=orthogonalEdgeStyle;rounded=0;orthogonalLoop=1;jettySize=auto;html=1;" parent="1" source="ltLlW4g9V4cl66PpBt7y-1" target="ltLlW4g9V4cl66PpBt7y-16" edge="1">
          <mxGeometry relative="1" as="geometry">
            <Array as="points">
              <mxPoint x="80" y="280" />
              <mxPoint x="920" y="280" />
            </Array>
          </mxGeometry>
        </mxCell>
        <mxCell id="ltLlW4g9V4cl66PpBt7y-28" value="" style="edgeStyle=orthogonalEdgeStyle;rounded=0;orthogonalLoop=1;jettySize=auto;html=1;" parent="1" source="ltLlW4g9V4cl66PpBt7y-1" target="ltLlW4g9V4cl66PpBt7y-27" edge="1">
          <mxGeometry relative="1" as="geometry" />
        </mxCell>
        <mxCell id="OMt88UIyPd7eBrAwJEz0-8" style="edgeStyle=orthogonalEdgeStyle;rounded=0;orthogonalLoop=1;jettySize=auto;html=1;" edge="1" parent="1" source="ltLlW4g9V4cl66PpBt7y-1" target="OMt88UIyPd7eBrAwJEz0-9">
          <mxGeometry relative="1" as="geometry">
            <mxPoint y="740" as="targetPoint" />
            <Array as="points">
              <mxPoint x="-10" y="230" />
              <mxPoint x="-10" y="820" />
            </Array>
          </mxGeometry>
        </mxCell>
        <mxCell id="ltLlW4g9V4cl66PpBt7y-1" value="Init task" style="rounded=0;whiteSpace=wrap;html=1;" parent="1" vertex="1">
          <mxGeometry x="20" y="210" width="120" height="40" as="geometry" />
        </mxCell>
        <mxCell id="ltLlW4g9V4cl66PpBt7y-39" value="" style="edgeStyle=orthogonalEdgeStyle;rounded=0;orthogonalLoop=1;jettySize=auto;html=1;" parent="1" source="ltLlW4g9V4cl66PpBt7y-3" target="ltLlW4g9V4cl66PpBt7y-38" edge="1">
          <mxGeometry relative="1" as="geometry" />
        </mxCell>
        <mxCell id="ltLlW4g9V4cl66PpBt7y-41" value="" style="edgeStyle=orthogonalEdgeStyle;rounded=0;orthogonalLoop=1;jettySize=auto;html=1;" parent="1" source="ltLlW4g9V4cl66PpBt7y-3" target="ltLlW4g9V4cl66PpBt7y-40" edge="1">
          <mxGeometry relative="1" as="geometry" />
        </mxCell>
        <mxCell id="ltLlW4g9V4cl66PpBt7y-3" value="DataHandler task" style="whiteSpace=wrap;html=1;rounded=0;" parent="1" vertex="1">
          <mxGeometry x="20" y="560" width="120" height="40" as="geometry" />
        </mxCell>
        <mxCell id="ltLlW4g9V4cl66PpBt7y-29" value="" style="edgeStyle=orthogonalEdgeStyle;rounded=0;orthogonalLoop=1;jettySize=auto;html=1;" parent="1" source="ltLlW4g9V4cl66PpBt7y-6" target="ltLlW4g9V4cl66PpBt7y-21" edge="1">
          <mxGeometry relative="1" as="geometry" />
        </mxCell>
        <mxCell id="ltLlW4g9V4cl66PpBt7y-6" value="BME680 task" style="whiteSpace=wrap;html=1;rounded=0;" parent="1" vertex="1">
          <mxGeometry x="160" y="320" width="120" height="40" as="geometry" />
        </mxCell>
        <mxCell id="ltLlW4g9V4cl66PpBt7y-30" value="" style="edgeStyle=orthogonalEdgeStyle;rounded=0;orthogonalLoop=1;jettySize=auto;html=1;" parent="1" source="ltLlW4g9V4cl66PpBt7y-8" target="ltLlW4g9V4cl66PpBt7y-22" edge="1">
          <mxGeometry relative="1" as="geometry" />
        </mxCell>
        <mxCell id="ltLlW4g9V4cl66PpBt7y-8" value="DHT20 task" style="whiteSpace=wrap;html=1;rounded=0;" parent="1" vertex="1">
          <mxGeometry x="300" y="320" width="120" height="40" as="geometry" />
        </mxCell>
        <mxCell id="ltLlW4g9V4cl66PpBt7y-31" value="" style="edgeStyle=orthogonalEdgeStyle;rounded=0;orthogonalLoop=1;jettySize=auto;html=1;" parent="1" source="ltLlW4g9V4cl66PpBt7y-10" target="ltLlW4g9V4cl66PpBt7y-23" edge="1">
          <mxGeometry relative="1" as="geometry" />
        </mxCell>
        <mxCell id="ltLlW4g9V4cl66PpBt7y-10" value="LightSensor task" style="whiteSpace=wrap;html=1;rounded=0;" parent="1" vertex="1">
          <mxGeometry x="440" y="320" width="120" height="40" as="geometry" />
        </mxCell>
        <mxCell id="ltLlW4g9V4cl66PpBt7y-32" value="" style="edgeStyle=orthogonalEdgeStyle;rounded=0;orthogonalLoop=1;jettySize=auto;html=1;" parent="1" source="ltLlW4g9V4cl66PpBt7y-12" target="ltLlW4g9V4cl66PpBt7y-24" edge="1">
          <mxGeometry relative="1" as="geometry" />
        </mxCell>
        <mxCell id="ltLlW4g9V4cl66PpBt7y-12" value="Anemometer task" style="whiteSpace=wrap;html=1;rounded=0;" parent="1" vertex="1">
          <mxGeometry x="580" y="320" width="120" height="40" as="geometry" />
        </mxCell>
        <mxCell id="ltLlW4g9V4cl66PpBt7y-33" value="" style="edgeStyle=orthogonalEdgeStyle;rounded=0;orthogonalLoop=1;jettySize=auto;html=1;" parent="1" source="ltLlW4g9V4cl66PpBt7y-14" target="ltLlW4g9V4cl66PpBt7y-25" edge="1">
          <mxGeometry relative="1" as="geometry" />
        </mxCell>
        <mxCell id="ltLlW4g9V4cl66PpBt7y-14" value="GPS task" style="whiteSpace=wrap;html=1;rounded=0;" parent="1" vertex="1">
          <mxGeometry x="720" y="320" width="120" height="40" as="geometry" />
        </mxCell>
        <mxCell id="ltLlW4g9V4cl66PpBt7y-34" value="" style="edgeStyle=orthogonalEdgeStyle;rounded=0;orthogonalLoop=1;jettySize=auto;html=1;" parent="1" source="ltLlW4g9V4cl66PpBt7y-16" target="ltLlW4g9V4cl66PpBt7y-26" edge="1">
          <mxGeometry relative="1" as="geometry" />
        </mxCell>
        <mxCell id="ltLlW4g9V4cl66PpBt7y-16" value="IMU task" style="whiteSpace=wrap;html=1;rounded=0;" parent="1" vertex="1">
          <mxGeometry x="860" y="320" width="120" height="40" as="geometry" />
        </mxCell>
        <mxCell id="ltLlW4g9V4cl66PpBt7y-51" style="edgeStyle=orthogonalEdgeStyle;rounded=0;orthogonalLoop=1;jettySize=auto;html=1;entryX=0.5;entryY=0;entryDx=0;entryDy=0;" parent="1" source="ltLlW4g9V4cl66PpBt7y-21" target="ltLlW4g9V4cl66PpBt7y-40" edge="1">
          <mxGeometry relative="1" as="geometry">
            <Array as="points">
              <mxPoint x="220" y="520" />
              <mxPoint x="256" y="520" />
            </Array>
          </mxGeometry>
        </mxCell>
        <mxCell id="ltLlW4g9V4cl66PpBt7y-21" value="BME680 Queue" style="outlineConnect=0;dashed=0;verticalLabelPosition=bottom;verticalAlign=top;align=center;html=1;shape=mxgraph.aws3.queue;direction=south;perimeterSpacing=1;fillColor=#bac8d3;strokeColor=#23445d;" parent="1" vertex="1">
          <mxGeometry x="196" y="400" width="48" height="73.5" as="geometry" />
        </mxCell>
        <mxCell id="ltLlW4g9V4cl66PpBt7y-52" style="edgeStyle=orthogonalEdgeStyle;rounded=0;orthogonalLoop=1;jettySize=auto;html=1;entryX=0.5;entryY=0;entryDx=0;entryDy=0;" parent="1" source="ltLlW4g9V4cl66PpBt7y-22" target="ltLlW4g9V4cl66PpBt7y-40" edge="1">
          <mxGeometry relative="1" as="geometry">
            <mxPoint x="300" y="530" as="targetPoint" />
            <Array as="points">
              <mxPoint x="360" y="520" />
              <mxPoint x="256" y="520" />
            </Array>
          </mxGeometry>
        </mxCell>
        <mxCell id="ltLlW4g9V4cl66PpBt7y-22" value="DHT20 Queue" style="outlineConnect=0;dashed=0;verticalLabelPosition=bottom;verticalAlign=top;align=center;html=1;shape=mxgraph.aws3.queue;direction=south;perimeterSpacing=1;fillColor=#bac8d3;strokeColor=#23445d;" parent="1" vertex="1">
          <mxGeometry x="336" y="400" width="48" height="73.5" as="geometry" />
        </mxCell>
        <mxCell id="ltLlW4g9V4cl66PpBt7y-53" style="edgeStyle=orthogonalEdgeStyle;rounded=0;orthogonalLoop=1;jettySize=auto;html=1;entryX=0.5;entryY=0;entryDx=0;entryDy=0;" parent="1" source="ltLlW4g9V4cl66PpBt7y-23" target="ltLlW4g9V4cl66PpBt7y-40" edge="1">
          <mxGeometry relative="1" as="geometry">
            <Array as="points">
              <mxPoint x="500" y="520" />
              <mxPoint x="256" y="520" />
            </Array>
          </mxGeometry>
        </mxCell>
        <mxCell id="ltLlW4g9V4cl66PpBt7y-23" value="LightSensor Queue" style="outlineConnect=0;dashed=0;verticalLabelPosition=bottom;verticalAlign=top;align=center;html=1;shape=mxgraph.aws3.queue;direction=south;perimeterSpacing=1;fillColor=#bac8d3;strokeColor=#23445d;" parent="1" vertex="1">
          <mxGeometry x="476" y="400" width="48" height="73.5" as="geometry" />
        </mxCell>
        <mxCell id="ltLlW4g9V4cl66PpBt7y-54" style="edgeStyle=orthogonalEdgeStyle;rounded=0;orthogonalLoop=1;jettySize=auto;html=1;entryX=0.5;entryY=0;entryDx=0;entryDy=0;" parent="1" source="ltLlW4g9V4cl66PpBt7y-24" target="ltLlW4g9V4cl66PpBt7y-40" edge="1">
          <mxGeometry relative="1" as="geometry">
            <mxPoint x="310" y="540" as="targetPoint" />
            <Array as="points">
              <mxPoint x="640" y="520" />
              <mxPoint x="256" y="520" />
            </Array>
          </mxGeometry>
        </mxCell>
        <mxCell id="ltLlW4g9V4cl66PpBt7y-24" value="Anemometer Queue" style="outlineConnect=0;dashed=0;verticalLabelPosition=bottom;verticalAlign=top;align=center;html=1;shape=mxgraph.aws3.queue;direction=south;perimeterSpacing=1;fillColor=#bac8d3;strokeColor=#23445d;" parent="1" vertex="1">
          <mxGeometry x="616" y="400" width="48" height="73.5" as="geometry" />
        </mxCell>
        <mxCell id="ltLlW4g9V4cl66PpBt7y-55" style="edgeStyle=orthogonalEdgeStyle;rounded=0;orthogonalLoop=1;jettySize=auto;html=1;entryX=0.5;entryY=0;entryDx=0;entryDy=0;" parent="1" source="ltLlW4g9V4cl66PpBt7y-25" target="ltLlW4g9V4cl66PpBt7y-40" edge="1">
          <mxGeometry relative="1" as="geometry">
            <mxPoint x="370" y="540" as="targetPoint" />
            <Array as="points">
              <mxPoint x="780" y="520" />
              <mxPoint x="256" y="520" />
            </Array>
          </mxGeometry>
        </mxCell>
        <mxCell id="ltLlW4g9V4cl66PpBt7y-25" value="GPS Queue" style="outlineConnect=0;dashed=0;verticalLabelPosition=bottom;verticalAlign=top;align=center;html=1;shape=mxgraph.aws3.queue;direction=south;perimeterSpacing=1;fillColor=#bac8d3;strokeColor=#23445d;" parent="1" vertex="1">
          <mxGeometry x="756" y="400" width="48" height="73.5" as="geometry" />
        </mxCell>
        <mxCell id="ltLlW4g9V4cl66PpBt7y-56" style="edgeStyle=orthogonalEdgeStyle;rounded=0;orthogonalLoop=1;jettySize=auto;html=1;entryX=0.5;entryY=0;entryDx=0;entryDy=0;" parent="1" source="ltLlW4g9V4cl66PpBt7y-26" target="ltLlW4g9V4cl66PpBt7y-40" edge="1">
          <mxGeometry relative="1" as="geometry">
            <Array as="points">
              <mxPoint x="920" y="520" />
              <mxPoint x="256" y="520" />
            </Array>
          </mxGeometry>
        </mxCell>
        <mxCell id="ltLlW4g9V4cl66PpBt7y-26" value="IMU Queue" style="outlineConnect=0;dashed=0;verticalLabelPosition=bottom;verticalAlign=top;align=center;html=1;shape=mxgraph.aws3.queue;direction=south;perimeterSpacing=1;fillColor=#bac8d3;strokeColor=#23445d;" parent="1" vertex="1">
          <mxGeometry x="896" y="400" width="48" height="73.5" as="geometry" />
        </mxCell>
        <mxCell id="ltLlW4g9V4cl66PpBt7y-27" value="Perform initialisation for all sensors and components" style="rounded=0;whiteSpace=wrap;html=1;" parent="1" vertex="1">
          <mxGeometry x="196" y="205" width="120" height="50" as="geometry" />
        </mxCell>
        <mxCell id="ltLlW4g9V4cl66PpBt7y-43" value="" style="edgeStyle=orthogonalEdgeStyle;rounded=0;orthogonalLoop=1;jettySize=auto;html=1;" parent="1" source="ltLlW4g9V4cl66PpBt7y-38" target="ltLlW4g9V4cl66PpBt7y-42" edge="1">
          <mxGeometry relative="1" as="geometry" />
        </mxCell>
        <mxCell id="ltLlW4g9V4cl66PpBt7y-38" value="Filesystem task" style="whiteSpace=wrap;html=1;rounded=0;" parent="1" vertex="1">
          <mxGeometry x="20" y="650" width="120" height="40" as="geometry" />
        </mxCell>
        <mxCell id="ltLlW4g9V4cl66PpBt7y-45" value="" style="edgeStyle=orthogonalEdgeStyle;rounded=0;orthogonalLoop=1;jettySize=auto;html=1;" parent="1" source="ltLlW4g9V4cl66PpBt7y-40" target="ltLlW4g9V4cl66PpBt7y-44" edge="1">
          <mxGeometry relative="1" as="geometry" />
        </mxCell>
        <mxCell id="ltLlW4g9V4cl66PpBt7y-40" value="Read from each queue until empty" style="whiteSpace=wrap;html=1;rounded=0;" parent="1" vertex="1">
          <mxGeometry x="196" y="560" width="120" height="40" as="geometry" />
        </mxCell>
        <mxCell id="ltLlW4g9V4cl66PpBt7y-42" value="Handle terminal commands" style="whiteSpace=wrap;html=1;rounded=0;" parent="1" vertex="1">
          <mxGeometry x="196" y="650" width="120" height="40" as="geometry" />
        </mxCell>
        <mxCell id="ltLlW4g9V4cl66PpBt7y-47" value="" style="edgeStyle=orthogonalEdgeStyle;rounded=0;orthogonalLoop=1;jettySize=auto;html=1;" parent="1" source="ltLlW4g9V4cl66PpBt7y-44" target="ltLlW4g9V4cl66PpBt7y-46" edge="1">
          <mxGeometry relative="1" as="geometry" />
        </mxCell>
        <mxCell id="ltLlW4g9V4cl66PpBt7y-44" value="Write data to filesystem" style="whiteSpace=wrap;html=1;rounded=0;" parent="1" vertex="1">
          <mxGeometry x="366" y="560" width="120" height="40" as="geometry" />
        </mxCell>
        <mxCell id="ltLlW4g9V4cl66PpBt7y-49" value="" style="edgeStyle=orthogonalEdgeStyle;rounded=0;orthogonalLoop=1;jettySize=auto;html=1;" parent="1" source="ltLlW4g9V4cl66PpBt7y-46" target="ltLlW4g9V4cl66PpBt7y-48" edge="1">
          <mxGeometry relative="1" as="geometry" />
        </mxCell>
        <mxCell id="OMt88UIyPd7eBrAwJEz0-4" value="" style="edgeStyle=orthogonalEdgeStyle;rounded=0;orthogonalLoop=1;jettySize=auto;html=1;" edge="1" parent="1" source="ltLlW4g9V4cl66PpBt7y-46" target="OMt88UIyPd7eBrAwJEz0-2">
          <mxGeometry relative="1" as="geometry" />
        </mxCell>
        <mxCell id="ltLlW4g9V4cl66PpBt7y-46" value="Add data to data queue" style="whiteSpace=wrap;html=1;rounded=0;" parent="1" vertex="1">
          <mxGeometry x="540" y="560" width="120" height="40" as="geometry" />
        </mxCell>
        <mxCell id="ltLlW4g9V4cl66PpBt7y-50" style="edgeStyle=orthogonalEdgeStyle;rounded=0;orthogonalLoop=1;jettySize=auto;html=1;" parent="1" source="ltLlW4g9V4cl66PpBt7y-48" edge="1">
          <mxGeometry relative="1" as="geometry">
            <mxPoint x="170" y="580" as="targetPoint" />
            <Array as="points">
              <mxPoint x="850" y="580" />
              <mxPoint x="850" y="620" />
              <mxPoint x="170" y="620" />
              <mxPoint x="170" y="580" />
            </Array>
          </mxGeometry>
        </mxCell>
        <mxCell id="ltLlW4g9V4cl66PpBt7y-48" value="Wait 1 second" style="whiteSpace=wrap;html=1;rounded=0;" parent="1" vertex="1">
          <mxGeometry x="710" y="560" width="120" height="40" as="geometry" />
        </mxCell>
        <mxCell id="OMt88UIyPd7eBrAwJEz0-10" value="" style="edgeStyle=orthogonalEdgeStyle;rounded=0;orthogonalLoop=1;jettySize=auto;html=1;" edge="1" parent="1" source="OMt88UIyPd7eBrAwJEz0-1" target="OMt88UIyPd7eBrAwJEz0-9">
          <mxGeometry relative="1" as="geometry" />
        </mxCell>
        <mxCell id="OMt88UIyPd7eBrAwJEz0-1" value="Terminal stream buffer&lt;div&gt;&lt;br/&gt;&lt;/div&gt;" style="outlineConnect=0;dashed=0;verticalLabelPosition=bottom;verticalAlign=top;align=center;html=1;shape=mxgraph.aws3.queue;direction=south;perimeterSpacing=1;fillColor=#bac8d3;strokeColor=#23445d;" vertex="1" parent="1">
          <mxGeometry x="432" y="660" width="48" height="73.5" as="geometry" />
        </mxCell>
        <mxCell id="OMt88UIyPd7eBrAwJEz0-14" style="edgeStyle=orthogonalEdgeStyle;rounded=0;orthogonalLoop=1;jettySize=auto;html=1;entryX=0.5;entryY=0;entryDx=0;entryDy=0;" edge="1" parent="1" source="OMt88UIyPd7eBrAwJEz0-2" target="OMt88UIyPd7eBrAwJEz0-11">
          <mxGeometry relative="1" as="geometry" />
        </mxCell>
        <mxCell id="OMt88UIyPd7eBrAwJEz0-2" value="Data queue" style="outlineConnect=0;dashed=0;verticalLabelPosition=bottom;verticalAlign=top;align=center;html=1;shape=mxgraph.aws3.queue;direction=south;perimeterSpacing=1;fillColor=#bac8d3;strokeColor=#23445d;" vertex="1" parent="1">
          <mxGeometry x="600" y="660" width="48" height="73.5" as="geometry" />
        </mxCell>
        <mxCell id="OMt88UIyPd7eBrAwJEz0-7" value="" style="edgeStyle=orthogonalEdgeStyle;rounded=0;orthogonalLoop=1;jettySize=auto;html=1;" edge="1" parent="1" source="OMt88UIyPd7eBrAwJEz0-3" target="OMt88UIyPd7eBrAwJEz0-6">
          <mxGeometry relative="1" as="geometry">
            <Array as="points">
              <mxPoint x="536" y="970" />
            </Array>
          </mxGeometry>
        </mxCell>
        <mxCell id="OMt88UIyPd7eBrAwJEz0-3" value="Radio packet queue" style="outlineConnect=0;dashed=0;verticalLabelPosition=bottom;verticalAlign=top;align=center;html=1;shape=mxgraph.aws3.queue;direction=south;perimeterSpacing=1;fillColor=#bac8d3;strokeColor=#23445d;" vertex="1" parent="1">
          <mxGeometry x="516" y="870" width="48" height="73.5" as="geometry" />
        </mxCell>
        <mxCell id="OMt88UIyPd7eBrAwJEz0-6" value="Radio task" style="whiteSpace=wrap;html=1;rounded=0;" vertex="1" parent="1">
          <mxGeometry x="640" y="950" width="120" height="40" as="geometry" />
        </mxCell>
        <mxCell id="OMt88UIyPd7eBrAwJEz0-12" style="edgeStyle=orthogonalEdgeStyle;rounded=0;orthogonalLoop=1;jettySize=auto;html=1;" edge="1" parent="1" source="OMt88UIyPd7eBrAwJEz0-9" target="OMt88UIyPd7eBrAwJEz0-3">
          <mxGeometry relative="1" as="geometry">
            <mxPoint x="540" y="860" as="targetPoint" />
            <Array as="points">
              <mxPoint x="540" y="820" />
            </Array>
          </mxGeometry>
        </mxCell>
        <mxCell id="OMt88UIyPd7eBrAwJEz0-9" value="Terminal stream buffer task" style="rounded=0;whiteSpace=wrap;html=1;" vertex="1" parent="1">
          <mxGeometry x="396" y="800" width="120" height="40" as="geometry" />
        </mxCell>
        <mxCell id="OMt88UIyPd7eBrAwJEz0-11" value="Data queue task" style="rounded=0;whiteSpace=wrap;html=1;" vertex="1" parent="1">
          <mxGeometry x="564" y="800" width="120" height="40" as="geometry" />
        </mxCell>
        <mxCell id="OMt88UIyPd7eBrAwJEz0-13" style="edgeStyle=orthogonalEdgeStyle;rounded=0;orthogonalLoop=1;jettySize=auto;html=1;entryX=0;entryY=0.5;entryDx=0;entryDy=0;entryPerimeter=0;" edge="1" parent="1" source="OMt88UIyPd7eBrAwJEz0-11" target="OMt88UIyPd7eBrAwJEz0-3">
          <mxGeometry relative="1" as="geometry">
            <Array as="points">
              <mxPoint x="540" y="820" />
            </Array>
          </mxGeometry>
        </mxCell>
        <mxCell id="OMt88UIyPd7eBrAwJEz0-16" style="edgeStyle=orthogonalEdgeStyle;rounded=0;orthogonalLoop=1;jettySize=auto;html=1;entryX=0.5;entryY=1;entryDx=0;entryDy=0;entryPerimeter=0;" edge="1" parent="1" source="ltLlW4g9V4cl66PpBt7y-42" target="OMt88UIyPd7eBrAwJEz0-1">
          <mxGeometry relative="1" as="geometry" />
        </mxCell>
      </root>
    </mxGraphModel>
  </diagram>
</mxfile>
